<svg xmlns="http://www.w3.org/2000/svg" width="119" height="25" viewBox="0 0 119 25">
    <title>GILT</title>
    <path d="M90.3271313.926153846L90.3271313 8.7399359 90.9491618 8.7399359 95.3284277 1.73224359 101.164043 1.73224359 101.164043 20.9915385C101.185799 22.2707051 100.144796 23.3267949 98.8328294 23.3598077L98.8315108 23.3610897 96.6759956 23.3610897 96.6759956 24.1675 112.393555 24.1675 112.393555 23.3610897 110.249248 23.3610897 110.238699 23.3610897C108.921458 23.3283974 107.877818 22.266859 107.904189 20.9828846L107.905508 20.9828846 107.905508 1.73224359 113.741123 1.73224359 118.121048 8.7399359 118.742419 8.7399359 118.742419.926153846 90.3271313.926153846zM81.5813895 23.3611218L73.9828604 23.3611218 73.9775861 23.3611218C72.953395 23.3011859 72.1016055 22.5386859 71.9618382 21.565609L71.9618382 3.46977564C71.9618382 2.50727564 73.0035003 1.7688141 74.0329657 1.73387821 74.0329657 1.73387821 74.1051568 1.73227564 74.110431 1.73227564L74.1091125 1.73227564 76.7096416 1.73227564 76.7096416.926185897 60.2632482.926185897 60.2632482 1.73227564 63.4043867 1.73227564 63.4383396 1.73387821C64.3343008 1.73387821 65.2197136 2.60022436 65.2197136 3.46721154L65.2197136 3.78003205 65.2197136 3.82201923 65.2197136 21.2720192C65.2197136 22.4184936 64.2696914 23.3499038 63.0922177 23.3598397L63.0899102 23.3611218 60.2632482 23.3611218 60.2632482 24.1675321 87.7769712 24.1675321 87.7769712 14.9595192 86.9462787 14.9595192 81.5813895 23.3611218zM38.8643452 1.73182692L40.6051734 1.73182692 40.6081402 1.73407051C41.8515418 1.73407051 42.9136416 2.59240385 42.9911069 3.79913462L42.9911069 3.79945513 42.9911069 3.80875 42.9911069 21.2940064 42.9897884 21.2940064C42.977262 22.4125962 42.0621817 23.3209295 40.9170127 23.3600321L40.9170127 23.3609936 40.8576776 23.3609936 40.8421845 23.3609936 40.8425141 23.3609936 38.8643452 23.3609936 38.8643452 24.1680449 53.856697 24.1680449 53.856697 23.3609936 51.8781983 23.3609936 51.8627053 23.3609936 51.8060072 23.3609936 51.804359 23.3600321C50.6516083 23.3209295 49.7312537 22.4013782 49.7312537 21.2722115L49.7312537 21.2734936 49.7312537 3.80875 49.7312537 3.79945513 49.7312537 3.79913462C49.8087191 2.58599359 50.8780709 1.73182692 52.1287247 1.73182692L53.856697 1.73182692 53.856697.926057692 38.8643452.926057692 38.8643452 1.73182692zM19.2601335 13.7300962L21.3365352 13.7300962C21.3411501 13.7300962 21.4726765 13.7313782 21.4726765 13.7313782 22.4797263 13.7919551 23.2741584 14.6038141 23.2804216 15.5954808L23.2823994 15.5974038 23.2823994 21.2419551C22.7638759 23.2095833 18.5115213 23.9659936 16.2300837 23.9659936 7.67493961 23.9659936 6.9484133 19.0243269 6.9484133 13.4791346 6.9484133 9.44772436 7.31200609 1.12785256 16.3339202 1.12785256 23.6450033 1.12785256 26.9123939 6.57240385 28.9861584 10.0009295L29.6078593 10.0009295 29.6078593.320480769 29.036923.320480769C28.5187291 1.02592949 27.6890255 2.13586538 25.8743579 2.13586538 23.7488399 2.13586538 20.1705989.320480769 16.0754825.320480769 8.24488698.320480769-.0000659279776 4.65637821-.0000659279776 13.1772115-.0000659279776 18.6717628 5.13374571 24.7727244 15.2972028 24.7727244 21.1034798 24.7727244 25.6139424 22.5047756 28.4132443 22.5028526L29.7631197 22.5028526 29.7631197 15.9698397 29.7631197 15.6326603C29.9051945 14.5608654 30.8654355 13.7300962 32.008297 13.7300962L32.0982886 13.7300962 33.1218205 13.7300962 33.1218205 12.925609 19.2601335 12.925609 19.2601335 13.7300962z"/>
</svg>
